<mxfile host="app.diagrams.net" agent="Mozilla/5.0 (Windows NT 10.0; Win64; x64) AppleWebKit/537.36 (KHTML, like Gecko) Chrome/131.0.0.0 Safari/537.36" version="25.0.3" pages="2">
  <diagram name="Практика 1" id="-0qfWdVe-GPnWOMLQOgo">
    <mxGraphModel dx="1300" dy="1305" grid="0" gridSize="10" guides="1" tooltips="1" connect="1" arrows="1" fold="1" page="1" pageScale="1" pageWidth="827" pageHeight="1169" background="#FBFBFB" math="0" shadow="0">
      <root>
        <mxCell id="0" />
        <mxCell id="1" parent="0" />
        <mxCell id="CUoZ-2nHjNrS1xwWZIKT-3" value="" style="ellipse;html=1;shape=startState;fillColor=#000000;strokeColor=#ff0000;" vertex="1" parent="1">
          <mxGeometry x="87" y="103" width="30" height="30" as="geometry" />
        </mxCell>
        <mxCell id="CUoZ-2nHjNrS1xwWZIKT-4" value="" style="edgeStyle=orthogonalEdgeStyle;html=1;verticalAlign=bottom;endArrow=open;endSize=8;strokeColor=#ff0000;rounded=0;exitX=1;exitY=0.5;exitDx=0;exitDy=0;" edge="1" source="CUoZ-2nHjNrS1xwWZIKT-3" parent="1">
          <mxGeometry relative="1" as="geometry">
            <mxPoint x="196" y="118" as="targetPoint" />
          </mxGeometry>
        </mxCell>
        <mxCell id="CUoZ-2nHjNrS1xwWZIKT-7" style="edgeStyle=orthogonalEdgeStyle;rounded=0;orthogonalLoop=1;jettySize=auto;html=1;" edge="1" parent="1" source="CUoZ-2nHjNrS1xwWZIKT-5" target="CUoZ-2nHjNrS1xwWZIKT-6">
          <mxGeometry relative="1" as="geometry" />
        </mxCell>
        <mxCell id="CUoZ-2nHjNrS1xwWZIKT-5" value="Приходит в библиотеку" style="html=1;whiteSpace=wrap;" vertex="1" parent="1">
          <mxGeometry x="194" y="93" width="110" height="50" as="geometry" />
        </mxCell>
        <mxCell id="CUoZ-2nHjNrS1xwWZIKT-14" style="edgeStyle=orthogonalEdgeStyle;rounded=0;orthogonalLoop=1;jettySize=auto;html=1;endArrow=diamond;endFill=1;strokeWidth=1;endSize=20;" edge="1" parent="1">
          <mxGeometry relative="1" as="geometry">
            <mxPoint x="451.00001743861617" y="263.5714460100447" as="targetPoint" />
            <mxPoint x="659" y="148" as="sourcePoint" />
            <Array as="points">
              <mxPoint x="659" y="163" />
              <mxPoint x="451" y="163" />
            </Array>
          </mxGeometry>
        </mxCell>
        <mxCell id="CUoZ-2nHjNrS1xwWZIKT-18" value="Есть билеть?" style="edgeLabel;html=1;align=center;verticalAlign=middle;resizable=0;points=[];" vertex="1" connectable="0" parent="CUoZ-2nHjNrS1xwWZIKT-14">
          <mxGeometry x="0.6957" y="-1" relative="1" as="geometry">
            <mxPoint as="offset" />
          </mxGeometry>
        </mxCell>
        <mxCell id="CUoZ-2nHjNrS1xwWZIKT-6" value="Проверка читательского билета" style="html=1;whiteSpace=wrap;" vertex="1" parent="1">
          <mxGeometry x="586" y="93" width="110" height="50" as="geometry" />
        </mxCell>
        <mxCell id="CUoZ-2nHjNrS1xwWZIKT-21" style="edgeStyle=orthogonalEdgeStyle;rounded=0;orthogonalLoop=1;jettySize=auto;html=1;entryX=1;entryY=0.5;entryDx=0;entryDy=0;" edge="1" parent="1" source="CUoZ-2nHjNrS1xwWZIKT-8" target="CUoZ-2nHjNrS1xwWZIKT-9">
          <mxGeometry relative="1" as="geometry" />
        </mxCell>
        <mxCell id="CUoZ-2nHjNrS1xwWZIKT-8" value="Оформление билета" style="html=1;whiteSpace=wrap;" vertex="1" parent="1">
          <mxGeometry x="586" y="280" width="110" height="50" as="geometry" />
        </mxCell>
        <mxCell id="CUoZ-2nHjNrS1xwWZIKT-13" style="edgeStyle=orthogonalEdgeStyle;rounded=0;orthogonalLoop=1;jettySize=auto;html=1;entryX=0.5;entryY=0;entryDx=0;entryDy=0;exitX=0.5;exitY=0;exitDx=0;exitDy=0;startArrow=classic;startFill=1;" edge="1" parent="1" source="CUoZ-2nHjNrS1xwWZIKT-9" target="CUoZ-2nHjNrS1xwWZIKT-8">
          <mxGeometry relative="1" as="geometry" />
        </mxCell>
        <mxCell id="CUoZ-2nHjNrS1xwWZIKT-19" value="Да" style="edgeLabel;html=1;align=center;verticalAlign=middle;resizable=0;points=[];" vertex="1" connectable="0" parent="CUoZ-2nHjNrS1xwWZIKT-13">
          <mxGeometry x="-0.5936" y="1" relative="1" as="geometry">
            <mxPoint as="offset" />
          </mxGeometry>
        </mxCell>
        <mxCell id="CUoZ-2nHjNrS1xwWZIKT-20" value="Нет" style="edgeLabel;html=1;align=center;verticalAlign=middle;resizable=0;points=[];" vertex="1" connectable="0" parent="CUoZ-2nHjNrS1xwWZIKT-13">
          <mxGeometry x="0.4745" y="-1" relative="1" as="geometry">
            <mxPoint as="offset" />
          </mxGeometry>
        </mxCell>
        <mxCell id="CUoZ-2nHjNrS1xwWZIKT-22" style="edgeStyle=orthogonalEdgeStyle;rounded=0;orthogonalLoop=1;jettySize=auto;html=1;entryX=0.5;entryY=0;entryDx=0;entryDy=0;" edge="1" parent="1" source="CUoZ-2nHjNrS1xwWZIKT-9" target="CUoZ-2nHjNrS1xwWZIKT-10">
          <mxGeometry relative="1" as="geometry">
            <Array as="points">
              <mxPoint x="249" y="353" />
              <mxPoint x="409" y="353" />
            </Array>
          </mxGeometry>
        </mxCell>
        <mxCell id="CUoZ-2nHjNrS1xwWZIKT-9" value="Выбор книги" style="html=1;whiteSpace=wrap;" vertex="1" parent="1">
          <mxGeometry x="194" y="281" width="110" height="50" as="geometry" />
        </mxCell>
        <mxCell id="CUoZ-2nHjNrS1xwWZIKT-24" style="edgeStyle=orthogonalEdgeStyle;rounded=0;orthogonalLoop=1;jettySize=auto;html=1;exitX=0.5;exitY=1;exitDx=0;exitDy=0;" edge="1" parent="1" source="CUoZ-2nHjNrS1xwWZIKT-10">
          <mxGeometry relative="1" as="geometry">
            <mxPoint x="409.17647058823536" y="494.7058751723346" as="targetPoint" />
          </mxGeometry>
        </mxCell>
        <mxCell id="CUoZ-2nHjNrS1xwWZIKT-10" value="Проверка доступности книги" style="html=1;whiteSpace=wrap;" vertex="1" parent="1">
          <mxGeometry x="354" y="402" width="110" height="50" as="geometry" />
        </mxCell>
        <mxCell id="CUoZ-2nHjNrS1xwWZIKT-11" value="Регистрация выдачи книги" style="html=1;whiteSpace=wrap;" vertex="1" parent="1">
          <mxGeometry x="335" y="560" width="110" height="50" as="geometry" />
        </mxCell>
        <mxCell id="CUoZ-2nHjNrS1xwWZIKT-23" style="edgeStyle=orthogonalEdgeStyle;rounded=0;orthogonalLoop=1;jettySize=auto;html=1;entryX=0.5;entryY=1;entryDx=0;entryDy=0;" edge="1" parent="1" source="CUoZ-2nHjNrS1xwWZIKT-12" target="CUoZ-2nHjNrS1xwWZIKT-9">
          <mxGeometry relative="1" as="geometry">
            <Array as="points">
              <mxPoint x="597" y="640" />
              <mxPoint x="249" y="640" />
            </Array>
          </mxGeometry>
        </mxCell>
        <mxCell id="CUoZ-2nHjNrS1xwWZIKT-12" value="Выбор другой книги" style="html=1;whiteSpace=wrap;" vertex="1" parent="1">
          <mxGeometry x="542" y="565" width="110" height="50" as="geometry" />
        </mxCell>
        <mxCell id="CUoZ-2nHjNrS1xwWZIKT-31" style="edgeStyle=orthogonalEdgeStyle;rounded=0;orthogonalLoop=1;jettySize=auto;html=1;entryX=0.5;entryY=0;entryDx=0;entryDy=0;startArrow=diamond;startFill=1;startSize=15;" edge="1" parent="1" source="CUoZ-2nHjNrS1xwWZIKT-28" target="CUoZ-2nHjNrS1xwWZIKT-11">
          <mxGeometry relative="1" as="geometry" />
        </mxCell>
        <mxCell id="CUoZ-2nHjNrS1xwWZIKT-33" value="Да" style="edgeLabel;html=1;align=center;verticalAlign=middle;resizable=0;points=[];" vertex="1" connectable="0" parent="CUoZ-2nHjNrS1xwWZIKT-31">
          <mxGeometry x="0.1376" y="-2" relative="1" as="geometry">
            <mxPoint as="offset" />
          </mxGeometry>
        </mxCell>
        <mxCell id="CUoZ-2nHjNrS1xwWZIKT-32" style="edgeStyle=orthogonalEdgeStyle;rounded=0;orthogonalLoop=1;jettySize=auto;html=1;entryX=0.5;entryY=0;entryDx=0;entryDy=0;" edge="1" parent="1">
          <mxGeometry relative="1" as="geometry">
            <mxPoint x="414" y="519" as="sourcePoint" />
            <mxPoint x="602.23" y="567.65" as="targetPoint" />
            <Array as="points">
              <mxPoint x="418" y="519" />
              <mxPoint x="602" y="519" />
            </Array>
          </mxGeometry>
        </mxCell>
        <mxCell id="CUoZ-2nHjNrS1xwWZIKT-34" value="Нет" style="edgeLabel;html=1;align=center;verticalAlign=middle;resizable=0;points=[];" vertex="1" connectable="0" parent="CUoZ-2nHjNrS1xwWZIKT-32">
          <mxGeometry x="0.7227" relative="1" as="geometry">
            <mxPoint as="offset" />
          </mxGeometry>
        </mxCell>
        <mxCell id="CUoZ-2nHjNrS1xwWZIKT-28" value="&lt;font style=&quot;font-size: 11px;&quot;&gt;Книга доступна&lt;/font&gt;" style="text;html=1;align=center;verticalAlign=middle;resizable=0;points=[];autosize=1;strokeColor=none;fillColor=none;" vertex="1" parent="1">
          <mxGeometry x="366" y="487" width="96" height="27" as="geometry" />
        </mxCell>
        <mxCell id="CUoZ-2nHjNrS1xwWZIKT-40" style="edgeStyle=orthogonalEdgeStyle;rounded=0;orthogonalLoop=1;jettySize=auto;html=1;exitX=1;exitY=0.5;exitDx=0;exitDy=0;entryX=0;entryY=0.5;entryDx=0;entryDy=0;strokeColor=#FF0000;" edge="1" parent="1" source="CUoZ-2nHjNrS1xwWZIKT-38" target="CUoZ-2nHjNrS1xwWZIKT-39">
          <mxGeometry relative="1" as="geometry" />
        </mxCell>
        <mxCell id="CUoZ-2nHjNrS1xwWZIKT-38" value="Перадача книги" style="html=1;whiteSpace=wrap;" vertex="1" parent="1">
          <mxGeometry x="583" y="402" width="110" height="50" as="geometry" />
        </mxCell>
        <mxCell id="CUoZ-2nHjNrS1xwWZIKT-39" value="" style="ellipse;html=1;shape=endState;fillColor=#000000;strokeColor=#ff0000;" vertex="1" parent="1">
          <mxGeometry x="754" y="412" width="30" height="30" as="geometry" />
        </mxCell>
      </root>
    </mxGraphModel>
  </diagram>
  <diagram id="WKWbD0NHmK-ndLe7uogy" name="Практика 2">
    <mxGraphModel dx="1486" dy="1491" grid="0" gridSize="10" guides="1" tooltips="1" connect="1" arrows="1" fold="1" page="1" pageScale="1" pageWidth="827" pageHeight="1169" math="0" shadow="0">
      <root>
        <mxCell id="0" />
        <mxCell id="1" parent="0" />
        <mxCell id="qppnHreWLj8oZ8zhrJ-N-5" style="edgeStyle=orthogonalEdgeStyle;rounded=0;orthogonalLoop=1;jettySize=auto;html=1;dashed=1;endArrow=none;endFill=0;" edge="1" parent="1" source="qppnHreWLj8oZ8zhrJ-N-1">
          <mxGeometry relative="1" as="geometry">
            <mxPoint x="121" y="602.5714721679688" as="targetPoint" />
          </mxGeometry>
        </mxCell>
        <mxCell id="qppnHreWLj8oZ8zhrJ-N-1" value="Пользователь" style="html=1;whiteSpace=wrap;" vertex="1" parent="1">
          <mxGeometry x="66" y="54" width="110" height="50" as="geometry" />
        </mxCell>
        <mxCell id="qppnHreWLj8oZ8zhrJ-N-6" style="edgeStyle=orthogonalEdgeStyle;rounded=0;orthogonalLoop=1;jettySize=auto;html=1;dashed=1;endArrow=none;endFill=0;" edge="1" parent="1" source="qppnHreWLj8oZ8zhrJ-N-2">
          <mxGeometry relative="1" as="geometry">
            <mxPoint x="308" y="603.71435546875" as="targetPoint" />
          </mxGeometry>
        </mxCell>
        <mxCell id="qppnHreWLj8oZ8zhrJ-N-2" value="Система" style="html=1;whiteSpace=wrap;" vertex="1" parent="1">
          <mxGeometry x="253" y="54" width="110" height="50" as="geometry" />
        </mxCell>
        <mxCell id="qppnHreWLj8oZ8zhrJ-N-7" style="edgeStyle=orthogonalEdgeStyle;rounded=0;orthogonalLoop=1;jettySize=auto;html=1;dashed=1;endArrow=none;endFill=0;" edge="1" parent="1" source="qppnHreWLj8oZ8zhrJ-N-3">
          <mxGeometry relative="1" as="geometry">
            <mxPoint x="495" y="606.0000348772323" as="targetPoint" />
          </mxGeometry>
        </mxCell>
        <mxCell id="qppnHreWLj8oZ8zhrJ-N-3" value="Склад" style="html=1;whiteSpace=wrap;" vertex="1" parent="1">
          <mxGeometry x="440" y="56" width="110" height="50" as="geometry" />
        </mxCell>
        <mxCell id="qppnHreWLj8oZ8zhrJ-N-8" style="edgeStyle=orthogonalEdgeStyle;rounded=0;orthogonalLoop=1;jettySize=auto;html=1;dashed=1;endArrow=none;endFill=0;" edge="1" parent="1" source="qppnHreWLj8oZ8zhrJ-N-4">
          <mxGeometry relative="1" as="geometry">
            <mxPoint x="678" y="610.571480887277" as="targetPoint" />
          </mxGeometry>
        </mxCell>
        <mxCell id="qppnHreWLj8oZ8zhrJ-N-4" value="Платежный шлюз" style="html=1;whiteSpace=wrap;" vertex="1" parent="1">
          <mxGeometry x="623" y="56" width="110" height="50" as="geometry" />
        </mxCell>
        <mxCell id="qppnHreWLj8oZ8zhrJ-N-9" value="END" style="html=1;verticalAlign=bottom;endArrow=open;dashed=1;endSize=8;curved=0;rounded=0;" edge="1" parent="1">
          <mxGeometry relative="1" as="geometry">
            <mxPoint x="682" y="605" as="sourcePoint" />
            <mxPoint x="115" y="602" as="targetPoint" />
          </mxGeometry>
        </mxCell>
        <mxCell id="qppnHreWLj8oZ8zhrJ-N-13" value="" style="html=1;points=[[0,0,0,0,5],[0,1,0,0,-5],[1,0,0,0,5],[1,1,0,0,-5]];perimeter=orthogonalPerimeter;outlineConnect=0;targetShapes=umlLifeline;portConstraint=eastwest;newEdgeStyle={&quot;curved&quot;:0,&quot;rounded&quot;:0};" vertex="1" parent="1">
          <mxGeometry x="116" y="122" width="10" height="393" as="geometry" />
        </mxCell>
        <mxCell id="qppnHreWLj8oZ8zhrJ-N-23" style="edgeStyle=orthogonalEdgeStyle;rounded=0;orthogonalLoop=1;jettySize=auto;html=1;curved=0;" edge="1" parent="1">
          <mxGeometry relative="1" as="geometry">
            <mxPoint x="127.06894657529637" y="207.9310344827586" as="targetPoint" />
            <mxPoint x="303" y="208" as="sourcePoint" />
            <Array as="points">
              <mxPoint x="260" y="208" />
              <mxPoint x="260" y="208" />
            </Array>
          </mxGeometry>
        </mxCell>
        <mxCell id="qppnHreWLj8oZ8zhrJ-N-42" style="edgeStyle=orthogonalEdgeStyle;rounded=0;orthogonalLoop=1;jettySize=auto;html=1;curved=0;exitX=1;exitY=1;exitDx=0;exitDy=-5;exitPerimeter=0;" edge="1" parent="1">
          <mxGeometry relative="1" as="geometry">
            <mxPoint x="488" y="201" as="targetPoint" />
            <mxPoint x="313" y="201" as="sourcePoint" />
          </mxGeometry>
        </mxCell>
        <mxCell id="qppnHreWLj8oZ8zhrJ-N-14" value="" style="html=1;points=[[0,0,0,0,5],[0,1,0,0,-5],[1,0,0,0,5],[1,1,0,0,-5]];perimeter=orthogonalPerimeter;outlineConnect=0;targetShapes=umlLifeline;portConstraint=eastwest;newEdgeStyle={&quot;curved&quot;:0,&quot;rounded&quot;:0};" vertex="1" parent="1">
          <mxGeometry x="303" y="122" width="10" height="101" as="geometry" />
        </mxCell>
        <mxCell id="qppnHreWLj8oZ8zhrJ-N-15" value="" style="html=1;points=[[0,0,0,0,5],[0,1,0,0,-5],[1,0,0,0,5],[1,1,0,0,-5]];perimeter=orthogonalPerimeter;outlineConnect=0;targetShapes=umlLifeline;portConstraint=eastwest;newEdgeStyle={&quot;curved&quot;:0,&quot;rounded&quot;:0};" vertex="1" parent="1">
          <mxGeometry x="673" y="122" width="10" height="101" as="geometry" />
        </mxCell>
        <mxCell id="qppnHreWLj8oZ8zhrJ-N-16" value="" style="html=1;points=[[0,0,0,0,5],[0,1,0,0,-5],[1,0,0,0,5],[1,1,0,0,-5]];perimeter=orthogonalPerimeter;outlineConnect=0;targetShapes=umlLifeline;portConstraint=eastwest;newEdgeStyle={&quot;curved&quot;:0,&quot;rounded&quot;:0};" vertex="1" parent="1">
          <mxGeometry x="303" y="242" width="10" height="101" as="geometry" />
        </mxCell>
        <mxCell id="qppnHreWLj8oZ8zhrJ-N-17" value="" style="html=1;points=[[0,0,0,0,5],[0,1,0,0,-5],[1,0,0,0,5],[1,1,0,0,-5]];perimeter=orthogonalPerimeter;outlineConnect=0;targetShapes=umlLifeline;portConstraint=eastwest;newEdgeStyle={&quot;curved&quot;:0,&quot;rounded&quot;:0};" vertex="1" parent="1">
          <mxGeometry x="303" y="364" width="10" height="101" as="geometry" />
        </mxCell>
        <mxCell id="qppnHreWLj8oZ8zhrJ-N-18" value="" style="html=1;points=[[0,0,0,0,5],[0,1,0,0,-5],[1,0,0,0,5],[1,1,0,0,-5]];perimeter=orthogonalPerimeter;outlineConnect=0;targetShapes=umlLifeline;portConstraint=eastwest;newEdgeStyle={&quot;curved&quot;:0,&quot;rounded&quot;:0};" vertex="1" parent="1">
          <mxGeometry x="303" y="484" width="10" height="71" as="geometry" />
        </mxCell>
        <mxCell id="qppnHreWLj8oZ8zhrJ-N-19" value="" style="html=1;points=[[0,0,0,0,5],[0,1,0,0,-5],[1,0,0,0,5],[1,1,0,0,-5]];perimeter=orthogonalPerimeter;outlineConnect=0;targetShapes=umlLifeline;portConstraint=eastwest;newEdgeStyle={&quot;curved&quot;:0,&quot;rounded&quot;:0};" vertex="1" parent="1">
          <mxGeometry x="673" y="484" width="10" height="71" as="geometry" />
        </mxCell>
        <mxCell id="qppnHreWLj8oZ8zhrJ-N-20" value="" style="html=1;points=[[0,0,0,0,5],[0,1,0,0,-5],[1,0,0,0,5],[1,1,0,0,-5]];perimeter=orthogonalPerimeter;outlineConnect=0;targetShapes=umlLifeline;portConstraint=eastwest;newEdgeStyle={&quot;curved&quot;:0,&quot;rounded&quot;:0};" vertex="1" parent="1">
          <mxGeometry x="490" y="192" width="10" height="101" as="geometry" />
        </mxCell>
        <mxCell id="qppnHreWLj8oZ8zhrJ-N-21" value="" style="html=1;points=[[0,0,0,0,5],[0,1,0,0,-5],[1,0,0,0,5],[1,1,0,0,-5]];perimeter=orthogonalPerimeter;outlineConnect=0;targetShapes=umlLifeline;portConstraint=eastwest;newEdgeStyle={&quot;curved&quot;:0,&quot;rounded&quot;:0};" vertex="1" parent="1">
          <mxGeometry x="490" y="372" width="10" height="101" as="geometry" />
        </mxCell>
        <mxCell id="qppnHreWLj8oZ8zhrJ-N-22" style="edgeStyle=orthogonalEdgeStyle;rounded=0;orthogonalLoop=1;jettySize=auto;html=1;curved=0;exitX=1;exitY=0;exitDx=0;exitDy=5;exitPerimeter=0;entryX=0;entryY=0;entryDx=0;entryDy=5;entryPerimeter=0;" edge="1" parent="1" source="qppnHreWLj8oZ8zhrJ-N-13" target="qppnHreWLj8oZ8zhrJ-N-14">
          <mxGeometry relative="1" as="geometry" />
        </mxCell>
        <mxCell id="qppnHreWLj8oZ8zhrJ-N-24" style="edgeStyle=orthogonalEdgeStyle;rounded=0;orthogonalLoop=1;jettySize=auto;html=1;curved=0;startArrow=classic;startFill=1;endArrow=none;endFill=0;" edge="1" parent="1">
          <mxGeometry relative="1" as="geometry">
            <mxPoint x="126.06894657529637" y="247.9310344827586" as="targetPoint" />
            <mxPoint x="302" y="248" as="sourcePoint" />
            <Array as="points">
              <mxPoint x="259" y="248" />
              <mxPoint x="259" y="248" />
            </Array>
          </mxGeometry>
        </mxCell>
        <mxCell id="qppnHreWLj8oZ8zhrJ-N-25" style="edgeStyle=orthogonalEdgeStyle;rounded=0;orthogonalLoop=1;jettySize=auto;html=1;curved=0;endArrow=open;endFill=0;dashed=1;" edge="1" parent="1">
          <mxGeometry relative="1" as="geometry">
            <mxPoint x="126.06894657529637" y="267.9310344827586" as="targetPoint" />
            <mxPoint x="302" y="268" as="sourcePoint" />
            <Array as="points">
              <mxPoint x="259" y="268" />
              <mxPoint x="259" y="268" />
            </Array>
          </mxGeometry>
        </mxCell>
        <mxCell id="qppnHreWLj8oZ8zhrJ-N-26" style="edgeStyle=orthogonalEdgeStyle;rounded=0;orthogonalLoop=1;jettySize=auto;html=1;curved=0;" edge="1" parent="1">
          <mxGeometry relative="1" as="geometry">
            <mxPoint x="126.06894657529637" y="287.9310344827586" as="targetPoint" />
            <mxPoint x="302" y="288" as="sourcePoint" />
            <Array as="points">
              <mxPoint x="259" y="288" />
              <mxPoint x="259" y="288" />
            </Array>
          </mxGeometry>
        </mxCell>
        <mxCell id="qppnHreWLj8oZ8zhrJ-N-27" style="edgeStyle=orthogonalEdgeStyle;rounded=0;orthogonalLoop=1;jettySize=auto;html=1;curved=0;startArrow=classic;startFill=1;endArrow=none;endFill=0;" edge="1" parent="1">
          <mxGeometry relative="1" as="geometry">
            <mxPoint x="126.06894657529637" y="367.9310344827586" as="targetPoint" />
            <mxPoint x="302" y="368" as="sourcePoint" />
            <Array as="points">
              <mxPoint x="259" y="368" />
              <mxPoint x="259" y="368" />
            </Array>
          </mxGeometry>
        </mxCell>
        <mxCell id="qppnHreWLj8oZ8zhrJ-N-28" style="edgeStyle=orthogonalEdgeStyle;rounded=0;orthogonalLoop=1;jettySize=auto;html=1;curved=0;startArrow=classic;startFill=1;endArrow=none;endFill=0;" edge="1" parent="1">
          <mxGeometry relative="1" as="geometry">
            <mxPoint x="126.06894657529637" y="393.9310344827586" as="targetPoint" />
            <mxPoint x="302" y="394" as="sourcePoint" />
            <Array as="points">
              <mxPoint x="259" y="394" />
              <mxPoint x="259" y="394" />
            </Array>
          </mxGeometry>
        </mxCell>
        <mxCell id="qppnHreWLj8oZ8zhrJ-N-29" style="edgeStyle=orthogonalEdgeStyle;rounded=0;orthogonalLoop=1;jettySize=auto;html=1;curved=0;startArrow=classic;startFill=1;endArrow=none;endFill=0;" edge="1" parent="1">
          <mxGeometry relative="1" as="geometry">
            <mxPoint x="126.06894657529637" y="417.9310344827586" as="targetPoint" />
            <mxPoint x="302" y="418" as="sourcePoint" />
            <Array as="points">
              <mxPoint x="259" y="418" />
              <mxPoint x="259" y="418" />
            </Array>
          </mxGeometry>
        </mxCell>
        <mxCell id="qppnHreWLj8oZ8zhrJ-N-31" style="edgeStyle=orthogonalEdgeStyle;rounded=0;orthogonalLoop=1;jettySize=auto;html=1;curved=0;" edge="1" parent="1">
          <mxGeometry relative="1" as="geometry">
            <mxPoint x="126.06894657529637" y="442.9310344827586" as="targetPoint" />
            <mxPoint x="302" y="443" as="sourcePoint" />
            <Array as="points">
              <mxPoint x="259" y="443" />
              <mxPoint x="259" y="443" />
            </Array>
          </mxGeometry>
        </mxCell>
        <mxCell id="qppnHreWLj8oZ8zhrJ-N-32" style="edgeStyle=orthogonalEdgeStyle;rounded=0;orthogonalLoop=1;jettySize=auto;html=1;curved=0;endArrow=open;endFill=0;dashed=1;" edge="1" parent="1">
          <mxGeometry relative="1" as="geometry">
            <mxPoint x="126.06894657529637" y="462.9310344827586" as="targetPoint" />
            <mxPoint x="302" y="463" as="sourcePoint" />
            <Array as="points">
              <mxPoint x="259" y="463" />
              <mxPoint x="259" y="463" />
            </Array>
          </mxGeometry>
        </mxCell>
        <mxCell id="qppnHreWLj8oZ8zhrJ-N-33" value="" style="html=1;verticalAlign=bottom;endArrow=block;curved=1;rounded=0;exitX=1;exitY=0.076;exitDx=0;exitDy=0;exitPerimeter=0;" edge="1" parent="1" source="qppnHreWLj8oZ8zhrJ-N-13">
          <mxGeometry width="80" relative="1" as="geometry">
            <mxPoint x="161" y="157" as="sourcePoint" />
            <mxPoint x="130" y="188" as="targetPoint" />
            <Array as="points">
              <mxPoint x="207" y="166" />
            </Array>
          </mxGeometry>
        </mxCell>
        <mxCell id="qppnHreWLj8oZ8zhrJ-N-34" value="" style="html=1;verticalAlign=bottom;endArrow=block;curved=1;rounded=0;exitX=1;exitY=0.076;exitDx=0;exitDy=0;exitPerimeter=0;" edge="1" parent="1">
          <mxGeometry width="80" relative="1" as="geometry">
            <mxPoint x="313" y="268" as="sourcePoint" />
            <mxPoint x="317" y="304" as="targetPoint" />
            <Array as="points">
              <mxPoint x="394" y="282" />
            </Array>
          </mxGeometry>
        </mxCell>
        <mxCell id="qppnHreWLj8oZ8zhrJ-N-36" value="" style="html=1;verticalAlign=bottom;endArrow=block;curved=1;rounded=0;exitX=1;exitY=0.076;exitDx=0;exitDy=0;exitPerimeter=0;" edge="1" parent="1">
          <mxGeometry width="80" relative="1" as="geometry">
            <mxPoint x="501" y="398" as="sourcePoint" />
            <mxPoint x="505" y="434" as="targetPoint" />
            <Array as="points">
              <mxPoint x="582" y="412" />
            </Array>
          </mxGeometry>
        </mxCell>
        <mxCell id="qppnHreWLj8oZ8zhrJ-N-37" value="" style="html=1;verticalAlign=bottom;endArrow=block;curved=1;rounded=0;exitX=1;exitY=0.076;exitDx=0;exitDy=0;exitPerimeter=0;" edge="1" parent="1">
          <mxGeometry width="80" relative="1" as="geometry">
            <mxPoint x="683" y="140" as="sourcePoint" />
            <mxPoint x="687" y="176" as="targetPoint" />
            <Array as="points">
              <mxPoint x="764" y="154" />
            </Array>
          </mxGeometry>
        </mxCell>
        <mxCell id="qppnHreWLj8oZ8zhrJ-N-38" style="edgeStyle=orthogonalEdgeStyle;rounded=0;orthogonalLoop=1;jettySize=auto;html=1;curved=0;exitX=1;exitY=0;exitDx=0;exitDy=5;exitPerimeter=0;entryX=0;entryY=0;entryDx=0;entryDy=5;entryPerimeter=0;" edge="1" parent="1" source="qppnHreWLj8oZ8zhrJ-N-18" target="qppnHreWLj8oZ8zhrJ-N-19">
          <mxGeometry relative="1" as="geometry" />
        </mxCell>
        <mxCell id="qppnHreWLj8oZ8zhrJ-N-39" style="edgeStyle=orthogonalEdgeStyle;rounded=0;orthogonalLoop=1;jettySize=auto;html=1;curved=0;exitX=0;exitY=1;exitDx=0;exitDy=-5;exitPerimeter=0;entryX=1;entryY=1;entryDx=0;entryDy=-5;entryPerimeter=0;endArrow=open;endFill=0;dashed=1;" edge="1" parent="1">
          <mxGeometry relative="1" as="geometry">
            <mxPoint x="490" y="466.0000000000001" as="sourcePoint" />
            <mxPoint x="313" y="458" as="targetPoint" />
            <Array as="points">
              <mxPoint x="490" y="458" />
            </Array>
          </mxGeometry>
        </mxCell>
        <mxCell id="qppnHreWLj8oZ8zhrJ-N-40" style="edgeStyle=orthogonalEdgeStyle;rounded=0;orthogonalLoop=1;jettySize=auto;html=1;curved=0;exitX=0;exitY=1;exitDx=0;exitDy=-5;exitPerimeter=0;entryX=1;entryY=1;entryDx=0;entryDy=-5;entryPerimeter=0;" edge="1" parent="1">
          <mxGeometry relative="1" as="geometry">
            <mxPoint x="490" y="408.0000000000001" as="sourcePoint" />
            <mxPoint x="313" y="400" as="targetPoint" />
            <Array as="points">
              <mxPoint x="490" y="400" />
            </Array>
          </mxGeometry>
        </mxCell>
        <mxCell id="qppnHreWLj8oZ8zhrJ-N-41" style="edgeStyle=orthogonalEdgeStyle;rounded=0;orthogonalLoop=1;jettySize=auto;html=1;curved=0;exitX=1;exitY=0;exitDx=0;exitDy=5;exitPerimeter=0;entryX=0;entryY=0;entryDx=0;entryDy=5;entryPerimeter=0;" edge="1" parent="1" source="qppnHreWLj8oZ8zhrJ-N-17" target="qppnHreWLj8oZ8zhrJ-N-21">
          <mxGeometry relative="1" as="geometry">
            <Array as="points">
              <mxPoint x="313" y="377" />
            </Array>
          </mxGeometry>
        </mxCell>
        <mxCell id="qppnHreWLj8oZ8zhrJ-N-43" style="edgeStyle=orthogonalEdgeStyle;rounded=0;orthogonalLoop=1;jettySize=auto;html=1;curved=0;exitX=1;exitY=1;exitDx=0;exitDy=-5;exitPerimeter=0;" edge="1" parent="1">
          <mxGeometry relative="1" as="geometry">
            <mxPoint x="672" y="181" as="targetPoint" />
            <mxPoint x="313" y="181" as="sourcePoint" />
          </mxGeometry>
        </mxCell>
        <mxCell id="qppnHreWLj8oZ8zhrJ-N-45" style="edgeStyle=orthogonalEdgeStyle;rounded=0;orthogonalLoop=1;jettySize=auto;html=1;curved=0;exitX=0;exitY=0;exitDx=0;exitDy=5;exitPerimeter=0;entryX=1;entryY=0;entryDx=0;entryDy=5;entryPerimeter=0;endArrow=open;endFill=0;dashed=1;" edge="1" parent="1" source="qppnHreWLj8oZ8zhrJ-N-15" target="qppnHreWLj8oZ8zhrJ-N-14">
          <mxGeometry relative="1" as="geometry" />
        </mxCell>
        <mxCell id="qppnHreWLj8oZ8zhrJ-N-46" value="&lt;font style=&quot;font-size: 11px;&quot;&gt;Выбор способа оплаты&lt;/font&gt;" style="text;html=1;align=center;verticalAlign=middle;resizable=0;points=[];autosize=1;strokeColor=none;fillColor=none;" vertex="1" parent="1">
          <mxGeometry x="141" y="104" width="137" height="27" as="geometry" />
        </mxCell>
        <mxCell id="qppnHreWLj8oZ8zhrJ-N-47" value="&lt;font style=&quot;font-size: 11px;&quot;&gt;Выбор онлайн-платеж?&lt;/font&gt;" style="text;html=1;align=center;verticalAlign=middle;resizable=0;points=[];autosize=1;strokeColor=none;fillColor=none;" vertex="1" parent="1">
          <mxGeometry x="137" y="131" width="138" height="27" as="geometry" />
        </mxCell>
        <mxCell id="qppnHreWLj8oZ8zhrJ-N-48" value="&lt;font style=&quot;font-size: 11px;&quot;&gt;Уведомление об ошибке оплаты&lt;/font&gt;" style="text;html=1;align=center;verticalAlign=middle;resizable=0;points=[];autosize=1;strokeColor=none;fillColor=none;" vertex="1" parent="1">
          <mxGeometry x="126" y="185" width="184" height="27" as="geometry" />
        </mxCell>
        <mxCell id="qppnHreWLj8oZ8zhrJ-N-49" value="&lt;font style=&quot;font-size: 11px;&quot;&gt;Пользователь входит в систему&lt;/font&gt;" style="text;html=1;align=center;verticalAlign=middle;resizable=0;points=[];autosize=1;strokeColor=none;fillColor=none;" vertex="1" parent="1">
          <mxGeometry x="121" y="223" width="180" height="27" as="geometry" />
        </mxCell>
        <mxCell id="qppnHreWLj8oZ8zhrJ-N-50" value="&lt;font style=&quot;font-size: 11px;&quot;&gt;повтор&lt;/font&gt;" style="text;html=1;align=center;verticalAlign=middle;resizable=0;points=[];autosize=1;strokeColor=none;fillColor=none;" vertex="1" parent="1">
          <mxGeometry x="183" y="245" width="53" height="27" as="geometry" />
        </mxCell>
        <mxCell id="qppnHreWLj8oZ8zhrJ-N-51" value="&lt;span style=&quot;font-size: 11px;&quot;&gt;успешно&lt;/span&gt;" style="text;html=1;align=center;verticalAlign=middle;resizable=0;points=[];autosize=1;strokeColor=none;fillColor=none;" vertex="1" parent="1">
          <mxGeometry x="178.5" y="266" width="62" height="27" as="geometry" />
        </mxCell>
        <mxCell id="qppnHreWLj8oZ8zhrJ-N-52" value="&lt;span style=&quot;font-size: 11px;&quot;&gt;Выбор товара и&amp;nbsp;&lt;/span&gt;&lt;div&gt;&lt;span style=&quot;font-size: 11px;&quot;&gt;добавление в корзину&lt;/span&gt;&lt;/div&gt;" style="text;html=1;align=center;verticalAlign=middle;resizable=0;points=[];autosize=1;strokeColor=none;fillColor=none;" vertex="1" parent="1">
          <mxGeometry x="149" y="330" width="131" height="42" as="geometry" />
        </mxCell>
        <mxCell id="qppnHreWLj8oZ8zhrJ-N-53" value="&lt;span style=&quot;font-size: 11px;&quot;&gt;Изменение корзины&lt;/span&gt;" style="text;html=1;align=center;verticalAlign=middle;resizable=0;points=[];autosize=1;strokeColor=none;fillColor=none;" vertex="1" parent="1">
          <mxGeometry x="154.5" y="369" width="120" height="27" as="geometry" />
        </mxCell>
        <mxCell id="qppnHreWLj8oZ8zhrJ-N-54" value="&lt;span style=&quot;font-size: 11px;&quot;&gt;Подтверждение заказа&lt;/span&gt;" style="text;html=1;align=center;verticalAlign=middle;resizable=0;points=[];autosize=1;strokeColor=none;fillColor=none;" vertex="1" parent="1">
          <mxGeometry x="146.5" y="396" width="136" height="27" as="geometry" />
        </mxCell>
        <mxCell id="qppnHreWLj8oZ8zhrJ-N-55" value="&lt;span style=&quot;font-size: 11px;&quot;&gt;Подтверждено&lt;/span&gt;" style="text;html=1;align=center;verticalAlign=middle;resizable=0;points=[];autosize=1;strokeColor=none;fillColor=none;" vertex="1" parent="1">
          <mxGeometry x="167" y="418" width="93" height="27" as="geometry" />
        </mxCell>
        <mxCell id="qppnHreWLj8oZ8zhrJ-N-58" value="&lt;font style=&quot;font-size: 10px;&quot;&gt;&lt;font style=&quot;&quot;&gt;Уведомление об изменении&amp;nbsp;&lt;/font&gt;&lt;span style=&quot;background-color: initial;&quot;&gt;корзины&lt;/span&gt;&lt;/font&gt;" style="text;html=1;align=center;verticalAlign=middle;resizable=0;points=[];autosize=1;strokeColor=none;fillColor=none;" vertex="1" parent="1">
          <mxGeometry x="120.5" y="441" width="189" height="26" as="geometry" />
        </mxCell>
        <mxCell id="qppnHreWLj8oZ8zhrJ-N-59" value="нет" style="text;html=1;align=center;verticalAlign=middle;resizable=0;points=[];autosize=1;strokeColor=none;fillColor=none;" vertex="1" parent="1">
          <mxGeometry x="378" y="436" width="36" height="26" as="geometry" />
        </mxCell>
        <mxCell id="qppnHreWLj8oZ8zhrJ-N-60" value="да" style="text;html=1;align=center;verticalAlign=middle;resizable=0;points=[];autosize=1;strokeColor=none;fillColor=none;" vertex="1" parent="1">
          <mxGeometry x="379" y="377" width="32" height="26" as="geometry" />
        </mxCell>
        <mxCell id="qppnHreWLj8oZ8zhrJ-N-61" value="Товары доступны?" style="text;html=1;align=center;verticalAlign=middle;resizable=0;points=[];autosize=1;strokeColor=none;fillColor=none;" vertex="1" parent="1">
          <mxGeometry x="521" y="423" width="122" height="26" as="geometry" />
        </mxCell>
        <mxCell id="qppnHreWLj8oZ8zhrJ-N-62" value="Проверка наличия товаров&amp;nbsp;&lt;div&gt;на складе&lt;/div&gt;" style="text;html=1;align=center;verticalAlign=middle;resizable=0;points=[];autosize=1;strokeColor=none;fillColor=none;" vertex="1" parent="1">
          <mxGeometry x="310" y="343" width="173" height="41" as="geometry" />
        </mxCell>
        <mxCell id="qppnHreWLj8oZ8zhrJ-N-63" value="Проверка авторизации" style="text;html=1;align=center;verticalAlign=middle;resizable=0;points=[];autosize=1;strokeColor=none;fillColor=none;" vertex="1" parent="1">
          <mxGeometry x="323.5" y="246" width="146" height="26" as="geometry" />
        </mxCell>
        <mxCell id="qppnHreWLj8oZ8zhrJ-N-64" value="&lt;font&gt;Подтверждение заказа&amp;nbsp;&lt;/font&gt;&lt;div style=&quot;line-height: 60%;&quot;&gt;&lt;font&gt;и отправка&lt;/font&gt;&lt;/div&gt;" style="text;html=1;align=center;verticalAlign=middle;resizable=0;points=[];autosize=1;strokeColor=none;fillColor=none;" vertex="1" parent="1">
          <mxGeometry x="318.5" y="174" width="150" height="34" as="geometry" />
        </mxCell>
        <mxCell id="qppnHreWLj8oZ8zhrJ-N-66" value="Обработка онлайн-оплаты" style="text;html=1;align=center;verticalAlign=middle;resizable=0;points=[];autosize=1;strokeColor=none;fillColor=none;" vertex="1" parent="1">
          <mxGeometry x="393" y="154" width="167" height="26" as="geometry" />
        </mxCell>
        <mxCell id="qppnHreWLj8oZ8zhrJ-N-67" value="Уведомление склада" style="text;html=1;align=center;verticalAlign=middle;resizable=0;points=[];autosize=1;strokeColor=none;fillColor=none;" vertex="1" parent="1">
          <mxGeometry x="431" y="467" width="135" height="26" as="geometry" />
        </mxCell>
        <mxCell id="qppnHreWLj8oZ8zhrJ-N-68" value="Платеж успешен?" style="text;html=1;align=center;verticalAlign=middle;resizable=0;points=[];autosize=1;strokeColor=none;fillColor=none;" vertex="1" parent="1">
          <mxGeometry x="702" y="128" width="118" height="26" as="geometry" />
        </mxCell>
      </root>
    </mxGraphModel>
  </diagram>
</mxfile>
